<?xml version="1.0" encoding="UTF-8"?>
<svg version="1.1" width="216" height="200" viewBox="0 0 1080 1000" fill="none" xmlns="http://www.w3.org/2000/svg" id="upload">
<rect width="1080" height="1000" fill="white"/>
<rect width="1080" height="165" fill="#D9D9D9"/>
<rect x="757" y="56.8965" width="206" height="51.2069" rx="25.6034" fill="white"/>
<rect x="117" y="56.8965" width="206" height="51.2069" rx="25.6034" fill="white"/>
<rect x="437" y="56.8965" width="206" height="51.2069" rx="25.6034" fill="white"/>
<rect x="52" y="229.071" width="976" height="124.929" rx="9" fill="white" stroke="#D9D9D9" stroke-width="2"/>
<path d="M51 238C51 232.477 55.4772 228 61 228H199V355H61C55.4772 355 51 350.523 51 345V238Z" fill="#D9D9D9"/>
<rect x="236" y="252" width="481" height="30" rx="15" fill="#D9D9D9" fill-opacity="0.57"/>
<rect x="236" y="297" width="223" height="30" rx="15" fill="#D9D9D9" fill-opacity="0.37"/>
<g opacity="0.75">
<path fill-rule="evenodd" clip-rule="evenodd" d="M963 298.562C963.348 298.562 963.682 298.424 963.928 298.178C964.174 297.932 964.312 297.598 964.312 297.25V278.047L967.252 281.479C967.479 281.744 967.801 281.907 968.149 281.934C968.496 281.961 968.839 281.849 969.104 281.622C969.369 281.396 969.532 281.074 969.559 280.726C969.586 280.379 969.474 280.036 969.247 279.771L963.997 273.646C963.874 273.502 963.721 273.386 963.549 273.307C963.377 273.228 963.19 273.187 963 273.187C962.81 273.187 962.623 273.228 962.451 273.307C962.279 273.386 962.126 273.502 962.002 273.646L956.752 279.771C956.64 279.902 956.555 280.054 956.502 280.218C956.448 280.382 956.427 280.555 956.441 280.726C956.454 280.898 956.501 281.066 956.579 281.22C956.657 281.373 956.765 281.51 956.896 281.622C957.027 281.735 957.179 281.82 957.343 281.873C957.507 281.927 957.68 281.948 957.851 281.934C958.023 281.921 958.191 281.874 958.345 281.796C958.498 281.718 958.635 281.61 958.747 281.479L961.687 278.049V297.25C961.687 297.975 962.275 298.562 963 298.562Z" fill="#0B3AB4"/>
<path d="M970 286.75C968.771 286.75 968.157 286.75 967.715 287.046C967.524 287.173 967.361 287.337 967.233 287.527C966.938 287.97 966.938 288.584 966.938 289.812V297.25C966.938 298.294 966.523 299.296 965.784 300.034C965.046 300.773 964.044 301.188 963 301.188C961.956 301.188 960.954 300.773 960.216 300.034C959.477 299.296 959.062 298.294 959.062 297.25V289.812C959.062 288.584 959.063 287.97 958.767 287.527C958.639 287.337 958.476 287.173 958.285 287.046C957.843 286.75 957.229 286.75 956 286.75C951.051 286.75 948.575 286.75 947.038 288.288C945.5 289.825 945.5 292.297 945.5 297.248V298.998C945.5 303.951 945.5 306.424 947.038 307.962C948.575 309.5 951.051 309.5 956 309.5H970C974.949 309.5 977.425 309.5 978.962 307.962C980.498 306.424 980.5 303.949 980.5 299V297.25C980.5 292.299 980.5 289.825 978.962 288.288C977.425 286.75 974.949 286.75 970 286.75Z" fill="#0B3AB4"/>
</g>
<rect x="52" y="385.071" width="976" height="124.929" rx="9" fill="white" stroke="#D9D9D9" stroke-width="2"/>
<path d="M51 394C51 388.477 55.4772 384 61 384H199V511H61C55.4772 511 51 506.523 51 501V394Z" fill="#D9D9D9"/>
<rect x="236" y="408" width="481" height="30" rx="15" fill="#D9D9D9" fill-opacity="0.57"/>
<rect x="236" y="453" width="223" height="30" rx="15" fill="#D9D9D9" fill-opacity="0.37"/>
<g opacity="0.75">
<path fill-rule="evenodd" clip-rule="evenodd" d="M963 454.562C963.348 454.562 963.682 454.424 963.928 454.178C964.174 453.932 964.312 453.598 964.312 453.25V434.047L967.252 437.479C967.479 437.744 967.801 437.907 968.149 437.934C968.496 437.961 968.839 437.849 969.104 437.622C969.369 437.396 969.532 437.074 969.559 436.726C969.586 436.379 969.474 436.036 969.247 435.771L963.997 429.646C963.874 429.502 963.721 429.386 963.549 429.307C963.377 429.228 963.19 429.187 963 429.187C962.81 429.187 962.623 429.228 962.451 429.307C962.279 429.386 962.126 429.502 962.002 429.646L956.752 435.771C956.64 435.902 956.555 436.054 956.502 436.218C956.448 436.382 956.427 436.555 956.441 436.726C956.454 436.898 956.501 437.066 956.579 437.22C956.657 437.373 956.765 437.51 956.896 437.622C957.027 437.735 957.179 437.82 957.343 437.873C957.507 437.927 957.68 437.948 957.851 437.934C958.023 437.921 958.191 437.874 958.345 437.796C958.498 437.718 958.635 437.61 958.747 437.479L961.687 434.049V453.25C961.687 453.975 962.275 454.562 963 454.562Z" fill="#0B3AB4"/>
<path d="M970 442.75C968.771 442.75 968.157 442.75 967.715 443.046C967.524 443.173 967.361 443.337 967.233 443.527C966.938 443.97 966.938 444.584 966.938 445.812V453.25C966.938 454.294 966.523 455.296 965.784 456.034C965.046 456.773 964.044 457.188 963 457.188C961.956 457.188 960.954 456.773 960.216 456.034C959.477 455.296 959.062 454.294 959.062 453.25V445.812C959.062 444.584 959.063 443.97 958.767 443.527C958.639 443.337 958.476 443.173 958.285 443.046C957.843 442.75 957.229 442.75 956 442.75C951.051 442.75 948.575 442.75 947.038 444.288C945.5 445.825 945.5 448.297 945.5 453.248V454.998C945.5 459.951 945.5 462.424 947.038 463.962C948.575 465.5 951.051 465.5 956 465.5H970C974.949 465.5 977.425 465.5 978.962 463.962C980.498 462.424 980.5 459.949 980.5 455V453.25C980.5 448.299 980.5 445.825 978.962 444.288C977.425 442.75 974.949 442.75 970 442.75Z" fill="#0B3AB4"/>
</g>
<rect x="52" y="541.071" width="976" height="124.929" rx="9" fill="white" stroke="#D9D9D9" stroke-width="2"/>
<path d="M51 550C51 544.477 55.4772 540 61 540H199V667H61C55.4772 667 51 662.523 51 657V550Z" fill="#D9D9D9"/>
<rect x="236" y="564" width="481" height="30" rx="15" fill="#D9D9D9" fill-opacity="0.57"/>
<rect x="236" y="609" width="223" height="30" rx="15" fill="#D9D9D9" fill-opacity="0.37"/>
<g opacity="0.75">
<path fill-rule="evenodd" clip-rule="evenodd" d="M963 610.562C963.348 610.562 963.682 610.424 963.928 610.178C964.174 609.932 964.312 609.598 964.312 609.25V590.047L967.252 593.479C967.479 593.744 967.801 593.907 968.149 593.934C968.496 593.961 968.839 593.849 969.104 593.622C969.369 593.396 969.532 593.074 969.559 592.726C969.586 592.379 969.474 592.036 969.247 591.771L963.997 585.646C963.874 585.502 963.721 585.386 963.549 585.307C963.377 585.228 963.19 585.187 963 585.187C962.81 585.187 962.623 585.228 962.451 585.307C962.279 585.386 962.126 585.502 962.002 585.646L956.752 591.771C956.64 591.902 956.555 592.054 956.502 592.218C956.448 592.382 956.427 592.555 956.441 592.726C956.454 592.898 956.501 593.066 956.579 593.22C956.657 593.373 956.765 593.51 956.896 593.622C957.027 593.735 957.179 593.82 957.343 593.873C957.507 593.927 957.68 593.948 957.851 593.934C958.023 593.921 958.191 593.874 958.345 593.796C958.498 593.718 958.635 593.61 958.747 593.479L961.687 590.049V609.25C961.687 609.975 962.275 610.562 963 610.562Z" fill="#0B3AB4"/>
<path d="M970 598.75C968.771 598.75 968.157 598.75 967.715 599.046C967.524 599.173 967.361 599.337 967.233 599.527C966.938 599.97 966.938 600.584 966.938 601.812V609.25C966.938 610.294 966.523 611.296 965.784 612.034C965.046 612.773 964.044 613.188 963 613.188C961.956 613.188 960.954 612.773 960.216 612.034C959.477 611.296 959.062 610.294 959.062 609.25V601.812C959.062 600.584 959.063 599.97 958.767 599.527C958.639 599.337 958.476 599.173 958.285 599.046C957.843 598.75 957.229 598.75 956 598.75C951.051 598.75 948.575 598.75 947.038 600.288C945.5 601.825 945.5 604.297 945.5 609.248V610.998C945.5 615.951 945.5 618.424 947.038 619.962C948.575 621.5 951.051 621.5 956 621.5H970C974.949 621.5 977.425 621.5 978.962 619.962C980.498 618.424 980.5 615.949 980.5 611V609.25C980.5 604.299 980.5 601.825 978.962 600.288C977.425 598.75 974.949 598.75 970 598.75Z" fill="#0B3AB4"/>
</g>
<rect x="52" y="697.071" width="976" height="124.929" rx="9" fill="white" stroke="#D9D9D9" stroke-width="2"/>
<path d="M51 706C51 700.477 55.4772 696 61 696H199V823H61C55.4772 823 51 818.523 51 813V706Z" fill="#D9D9D9"/>
<rect x="236" y="720" width="481" height="30" rx="15" fill="#D9D9D9" fill-opacity="0.57"/>
<rect x="236" y="765" width="223" height="30" rx="15" fill="#D9D9D9" fill-opacity="0.37"/>
<g opacity="0.75">
<path fill-rule="evenodd" clip-rule="evenodd" d="M963 766.562C963.348 766.562 963.682 766.424 963.928 766.178C964.174 765.932 964.312 765.598 964.312 765.25V746.047L967.252 749.479C967.479 749.744 967.801 749.907 968.149 749.934C968.496 749.961 968.839 749.849 969.104 749.622C969.369 749.396 969.532 749.074 969.559 748.726C969.586 748.379 969.474 748.036 969.247 747.771L963.997 741.646C963.874 741.502 963.721 741.386 963.549 741.307C963.377 741.228 963.19 741.187 963 741.187C962.81 741.187 962.623 741.228 962.451 741.307C962.279 741.386 962.126 741.502 962.002 741.646L956.752 747.771C956.64 747.902 956.555 748.054 956.502 748.218C956.448 748.382 956.427 748.555 956.441 748.726C956.454 748.898 956.501 749.066 956.579 749.22C956.657 749.373 956.765 749.51 956.896 749.622C957.027 749.735 957.179 749.82 957.343 749.873C957.507 749.927 957.68 749.948 957.851 749.934C958.023 749.921 958.191 749.874 958.345 749.796C958.498 749.718 958.635 749.61 958.747 749.479L961.687 746.049V765.25C961.687 765.975 962.275 766.562 963 766.562Z" fill="#0B3AB4"/>
<path d="M970 754.75C968.771 754.75 968.157 754.75 967.715 755.046C967.524 755.173 967.361 755.337 967.233 755.527C966.938 755.97 966.938 756.584 966.938 757.812V765.25C966.938 766.294 966.523 767.296 965.784 768.034C965.046 768.773 964.044 769.188 963 769.188C961.956 769.188 960.954 768.773 960.216 768.034C959.477 767.296 959.062 766.294 959.062 765.25V757.812C959.062 756.584 959.063 755.97 958.767 755.527C958.639 755.337 958.476 755.173 958.285 755.046C957.843 754.75 957.229 754.75 956 754.75C951.051 754.75 948.575 754.75 947.038 756.288C945.5 757.825 945.5 760.297 945.5 765.248V766.998C945.5 771.951 945.5 774.424 947.038 775.962C948.575 777.5 951.051 777.5 956 777.5H970C974.949 777.5 977.425 777.5 978.962 775.962C980.498 774.424 980.5 771.949 980.5 767V765.25C980.5 760.299 980.5 757.825 978.962 756.288C977.425 754.75 974.949 754.75 970 754.75Z" fill="#0B3AB4"/>
</g>
<rect x="52" y="853.071" width="976" height="124.929" rx="9" fill="white" stroke="#D9D9D9" stroke-width="2"/>
<path d="M51 862C51 856.477 55.4772 852 61 852H199V979H61C55.4772 979 51 974.523 51 969V862Z" fill="#D9D9D9"/>
<rect x="236" y="876" width="481" height="30" rx="15" fill="#D9D9D9" fill-opacity="0.57"/>
<rect x="236" y="921" width="223" height="30" rx="15" fill="#D9D9D9" fill-opacity="0.37"/>
<g opacity="0.75">
<path fill-rule="evenodd" clip-rule="evenodd" d="M963 922.562C963.348 922.562 963.682 922.424 963.928 922.178C964.174 921.932 964.312 921.598 964.312 921.25V902.047L967.252 905.479C967.479 905.744 967.801 905.907 968.149 905.934C968.496 905.961 968.839 905.849 969.104 905.622C969.369 905.396 969.532 905.074 969.559 904.726C969.586 904.379 969.474 904.036 969.247 903.771L963.997 897.646C963.874 897.502 963.721 897.386 963.549 897.307C963.377 897.228 963.19 897.187 963 897.187C962.81 897.187 962.623 897.228 962.451 897.307C962.279 897.386 962.126 897.502 962.002 897.646L956.752 903.771C956.64 903.902 956.555 904.054 956.502 904.218C956.448 904.382 956.427 904.555 956.441 904.726C956.454 904.898 956.501 905.066 956.579 905.22C956.657 905.373 956.765 905.51 956.896 905.622C957.027 905.735 957.179 905.82 957.343 905.873C957.507 905.927 957.68 905.948 957.851 905.934C958.023 905.921 958.191 905.874 958.345 905.796C958.498 905.718 958.635 905.61 958.747 905.479L961.687 902.049V921.25C961.687 921.975 962.275 922.562 963 922.562Z" fill="#0B3AB4"/>
<path d="M970 910.75C968.771 910.75 968.157 910.75 967.715 911.046C967.524 911.173 967.361 911.337 967.233 911.527C966.938 911.97 966.938 912.584 966.938 913.812V921.25C966.938 922.294 966.523 923.296 965.784 924.034C965.046 924.773 964.044 925.188 963 925.188C961.956 925.188 960.954 924.773 960.216 924.034C959.477 923.296 959.062 922.294 959.062 921.25V913.812C959.062 912.584 959.063 911.97 958.767 911.527C958.639 911.337 958.476 911.173 958.285 911.046C957.843 910.75 957.229 910.75 956 910.75C951.051 910.75 948.575 910.75 947.038 912.288C945.5 913.825 945.5 916.297 945.5 921.248V922.998C945.5 927.951 945.5 930.424 947.038 931.962C948.575 933.5 951.051 933.5 956 933.5H970C974.949 933.5 977.425 933.5 978.962 931.962C980.498 930.424 980.5 927.949 980.5 923V921.25C980.5 916.299 980.5 913.825 978.962 912.288C977.425 910.75 974.949 910.75 970 910.75Z" fill="#0B3AB4"/>
</g>
<g opacity="0.6">
<path d="M101.2 929V912.8H103.9C104.616 912.8 105.303 913.084 105.809 913.591C106.316 914.097 106.6 914.784 106.6 915.5V926.3C106.6 927.016 106.316 927.703 105.809 928.209C105.303 928.716 104.616 929 103.9 929H101.2ZM122.8 915.5C122.8 914.784 123.084 914.097 123.591 913.591C124.097 913.084 124.784 912.8 125.5 912.8C126.216 912.8 126.903 913.084 127.409 913.591C127.916 914.097 128.2 914.784 128.2 915.5V926.3C128.2 927.016 127.916 927.703 127.409 928.209C126.903 928.716 126.216 929 125.5 929C124.784 929 124.097 928.716 123.591 928.209C123.084 927.703 122.8 927.016 122.8 926.3V915.5Z" fill="#3A86FF"/>
<path fill-rule="evenodd" clip-rule="evenodd" d="M90.4 883.1C90.4 880.952 91.2534 878.891 92.7725 877.372C94.2915 875.853 96.3518 875 98.5 875H142.818L160.6 892.782V947.9C160.6 950.048 159.747 952.109 158.228 953.628C156.709 955.147 154.648 956 152.5 956H98.5C96.3518 956 94.2915 955.147 92.7725 953.628C91.2534 952.109 90.4 950.048 90.4 947.9V883.1ZM103.9 907.4H95.8V934.4H103.9C106.048 934.4 108.109 933.547 109.628 932.028C111.147 930.509 112 928.448 112 926.3V915.5C112 913.352 111.147 911.291 109.628 909.772C108.109 908.253 106.048 907.4 103.9 907.4ZM125.5 907.4C123.352 907.4 121.292 908.253 119.772 909.772C118.253 911.291 117.4 913.352 117.4 915.5V926.3C117.4 928.448 118.253 930.509 119.772 932.028C121.292 933.547 123.352 934.4 125.5 934.4C127.648 934.4 129.709 933.547 131.228 932.028C132.747 930.509 133.6 928.448 133.6 926.3V915.5C133.6 913.352 132.747 911.291 131.228 909.772C129.709 908.253 127.648 907.4 125.5 907.4ZM139 934.4V907.4H155.2V918.2H149.8V912.8H144.4V929H149.8V923.6H155.2V934.4H139Z" fill="#3A86FF"/>
<mask id="mask0_2_2" style="mask-type:luminance" maskUnits="userSpaceOnUse" x="85" y="408" width="73" height="81">
<path d="M95.1667 431.437V414.375C95.1667 413.369 95.5661 412.405 96.2772 411.694C96.9883 410.983 97.9527 410.583 98.9583 410.583H152.042C153.047 410.583 154.012 410.983 154.723 411.694C155.434 412.405 155.833 413.369 155.833 414.375V482.625C155.833 483.631 155.434 484.595 154.723 485.306C154.012 486.017 153.047 486.417 152.042 486.417H98.9583C97.9527 486.417 96.9883 486.017 96.2772 485.306C95.5661 484.595 95.1667 483.631 95.1667 482.625V465.562" stroke="white" stroke-width="4" stroke-linecap="round" stroke-linejoin="round"/>
<path d="M138.771 431.437H144.458M133.083 446.604H144.458M133.083 461.771H144.458" stroke="white" stroke-width="4" stroke-linecap="round"/>
<path d="M87.5833 431.437H121.708V465.562H87.5833V431.437Z" fill="white" stroke="white" stroke-width="4" stroke-linecap="round" stroke-linejoin="round"/>
<path d="M98.9583 442.812L110.333 454.188M110.333 442.812L98.9583 454.188" stroke="black" stroke-width="4" stroke-linecap="round" stroke-linejoin="round"/>
</mask>
<g mask="url(#mask0_2_2)">
<path d="M80 403H171V494H80V403Z" fill="#7209B7"/>
</g>
<path d="M103.667 294.667H101V289.333H103.667C104.374 289.333 105.052 289.614 105.552 290.114C106.052 290.614 106.333 291.293 106.333 292C106.333 292.707 106.052 293.386 105.552 293.886C105.052 294.386 104.374 294.667 103.667 294.667ZM122.333 305.333V289.333H125C125.707 289.333 126.386 289.614 126.886 290.114C127.386 290.614 127.667 291.293 127.667 292V302.667C127.667 303.374 127.386 304.052 126.886 304.552C126.386 305.052 125.707 305.333 125 305.333H122.333Z" fill="#F72585"/>
<path fill-rule="evenodd" clip-rule="evenodd" d="M90.3333 260C90.3333 257.878 91.1762 255.843 92.6765 254.343C94.1768 252.843 96.2116 252 98.3333 252H142.104L159.667 269.563V324C159.667 326.122 158.824 328.157 157.324 329.657C155.823 331.157 153.788 332 151.667 332H98.3333C96.2116 332 94.1768 331.157 92.6765 329.657C91.1762 328.157 90.3333 326.122 90.3333 324V260ZM103.667 284H95.6666V310.667H101V300H103.667C105.788 300 107.823 299.157 109.324 297.657C110.824 296.157 111.667 294.122 111.667 292C111.667 289.878 110.824 287.843 109.324 286.343C107.823 284.843 105.788 284 103.667 284ZM125 284H117V310.667H125C127.122 310.667 129.157 309.824 130.657 308.324C132.157 306.823 133 304.788 133 302.667V292C133 289.878 132.157 287.843 130.657 286.343C129.157 284.843 127.122 284 125 284ZM138.333 310.667V284H154.333V289.333H143.667V294.667H149V300H143.667V310.667H138.333Z" fill="#FB5607"/>
<path d="M153 723.25H97C92.6 723.25 89 726.925 89 731.417V788.583C89 793.075 92.6 796.75 97 796.75H153C157.4 796.75 161 793.075 161 788.583V731.417C161 726.925 157.4 723.25 153 723.25ZM113 766.125C113 770.617 109.4 772.25 105 772.25C100.6 772.25 97 770.617 97 766.125V760H103V766.125H107V747.75H113V766.125ZM133 757.958C133 761.225 130.2 764.083 127 764.083H123V772.25H117V747.75H127C130.2 747.75 133 750.608 133 753.875V757.958ZM153 753.875H143V766.125H147V760H153V766.942C153 769.8 151 772.25 147.8 772.25H142.6C139.4 772.25 137.4 769.392 137.4 766.942V753.467C137 750.608 139 747.75 142.2 747.75H147.4C150.6 747.75 152.6 750.608 152.6 753.058V753.875M123 753.875H127V757.958H123V753.875Z" fill="#FFBE0B"/>
<path fill-rule="evenodd" clip-rule="evenodd" d="M90.3333 572C90.3333 569.878 91.1762 567.843 92.6765 566.343C94.1768 564.843 96.2116 564 98.3333 564H142.104L159.667 581.563V636C159.667 638.122 158.824 640.157 157.324 641.657C155.823 643.157 153.788 644 151.667 644H98.3333C96.2116 644 94.1768 643.157 92.6765 641.657C91.1762 640.157 90.3333 638.122 90.3333 636V572ZM95.6666 596H111.667V601.333H101V617.333H111.667V622.667H95.6666V596ZM133 596H117V612H127.667V617.333H117V622.667H133V606.667H122.333V601.333H133V596ZM143.667 596H138.333V615.771L146.333 623.771L154.333 615.771V596H149V613.563L146.333 616.229L143.667 613.563V596Z" fill="#FF006E"/>
</g>
</svg>
