<?xml version="1.0" encoding="UTF-8"?>
<svg version="1.1" width="216" height="200" viewBox="0 0 1080 1000" fill="none" xmlns="http://www.w3.org/2000/svg" id="verify">
<rect width="1080" height="1000" fill="white"/>
<rect width="1080" height="165" fill="#D9D9D9"/>
<rect x="757" y="56.8965" width="206" height="51.2069" rx="25.6034" fill="white"/>
<rect x="117" y="56.8965" width="206" height="51.2069" rx="25.6034" fill="white"/>
<rect x="437" y="56.8965" width="206" height="51.2069" rx="25.6034" fill="white"/>
<rect x="52" y="229.071" width="976" height="124.929" rx="9" fill="white" stroke="#D9D9D9" stroke-width="2"/>
<path d="M51 238C51 232.477 55.4772 228 61 228H199V355H61C55.4772 355 51 350.523 51 345V238Z" fill="#D9D9D9"/>
<rect x="236" y="252" width="481" height="30" rx="15" fill="#D9D9D9" fill-opacity="0.57"/>
<rect x="236" y="297" width="223" height="30" rx="15" fill="#D9D9D9" fill-opacity="0.37"/>
<rect x="52" y="730.071" width="976" height="124.929" rx="9" fill="white" stroke="#D9D9D9" stroke-width="2"/>
<path d="M51 739C51 733.477 55.4772 729 61 729H199V856H61C55.4772 856 51 851.523 51 846V739Z" fill="#D9D9D9"/>
<rect x="236" y="753" width="481" height="30" rx="15" fill="#D9D9D9" fill-opacity="0.57"/>
<rect x="236" y="798" width="223" height="30" rx="15" fill="#D9D9D9" fill-opacity="0.37"/>
<rect x="52" y="480.071" width="976" height="124.929" rx="9" fill="white" stroke="#D9D9D9" stroke-width="2"/>
<path d="M51 489C51 483.477 55.4772 479 61 479H199V606H61C55.4772 606 51 601.523 51 596V489Z" fill="#D9D9D9"/>
<rect x="236" y="503" width="481" height="30" rx="15" fill="#D9D9D9" fill-opacity="0.57"/>
<rect x="236" y="548" width="223" height="30" rx="15" fill="#D9D9D9" fill-opacity="0.37"/>
<g opacity="0.6">
<mask id="mask0_2_118" style="mask-type:luminance" maskUnits="userSpaceOnUse" x="87" y="504" width="73" height="81">
<path d="M97.1666 527.437V510.375C97.1666 509.369 97.5661 508.405 98.2772 507.694C98.9883 506.983 99.9527 506.583 100.958 506.583H154.042C155.047 506.583 156.012 506.983 156.723 507.694C157.434 508.405 157.833 509.369 157.833 510.375V578.625C157.833 579.631 157.434 580.595 156.723 581.306C156.012 582.017 155.047 582.417 154.042 582.417H100.958C99.9527 582.417 98.9883 582.017 98.2772 581.306C97.5661 580.595 97.1666 579.631 97.1666 578.625V561.562" stroke="white" stroke-width="4" stroke-linecap="round" stroke-linejoin="round"/>
<path d="M140.771 527.437H146.458M135.083 542.604H146.458M135.083 557.771H146.458" stroke="white" stroke-width="4" stroke-linecap="round"/>
<path d="M89.5833 527.437H123.708V561.562H89.5833V527.437Z" fill="white" stroke="white" stroke-width="4" stroke-linecap="round" stroke-linejoin="round"/>
<path d="M100.958 538.812L112.333 550.188M112.333 538.812L100.958 550.188" stroke="black" stroke-width="4" stroke-linecap="round" stroke-linejoin="round"/>
</mask>
<g mask="url(#mask0_2_118)">
<path d="M82 499H173V590H82V499Z" fill="#7209B7"/>
</g>
<path d="M98.6667 294.667H96V289.333H98.6667C99.3739 289.333 100.052 289.614 100.552 290.114C101.052 290.614 101.333 291.293 101.333 292C101.333 292.707 101.052 293.386 100.552 293.886C100.052 294.386 99.3739 294.667 98.6667 294.667ZM117.333 305.333V289.333H120C120.707 289.333 121.386 289.614 121.886 290.114C122.386 290.614 122.667 291.293 122.667 292V302.667C122.667 303.374 122.386 304.052 121.886 304.552C121.386 305.052 120.707 305.333 120 305.333H117.333Z" fill="#F72585"/>
<path fill-rule="evenodd" clip-rule="evenodd" d="M85.3333 260C85.3333 257.878 86.1762 255.843 87.6765 254.343C89.1768 252.843 91.2116 252 93.3333 252H137.104L154.667 269.563V324C154.667 326.122 153.824 328.157 152.324 329.657C150.823 331.157 148.788 332 146.667 332H93.3333C91.2116 332 89.1768 331.157 87.6765 329.657C86.1762 328.157 85.3333 326.122 85.3333 324V260ZM98.6666 284H90.6666V310.667H96V300H98.6666C100.788 300 102.823 299.157 104.324 297.657C105.824 296.157 106.667 294.122 106.667 292C106.667 289.878 105.824 287.843 104.324 286.343C102.823 284.843 100.788 284 98.6666 284ZM120 284H112V310.667H120C122.122 310.667 124.157 309.824 125.657 308.324C127.157 306.823 128 304.788 128 302.667V292C128 289.878 127.157 287.843 125.657 286.343C124.157 284.843 122.122 284 120 284ZM133.333 310.667V284H149.333V289.333H138.667V294.667H144V300H138.667V310.667H133.333Z" fill="#FB5607"/>
<path fill-rule="evenodd" clip-rule="evenodd" d="M88 761C88 758.878 88.8429 756.843 90.3431 755.343C91.8434 753.843 93.8783 753 96 753H139.771L157.333 770.563V825C157.333 827.122 156.49 829.157 154.99 830.657C153.49 832.157 151.455 833 149.333 833H96C93.8783 833 91.8434 832.157 90.3431 830.657C88.8429 829.157 88 827.122 88 825V761ZM93.3333 785H109.333V790.333H98.6667V806.333H109.333V811.667H93.3333V785ZM130.667 785H114.667V801H125.333V806.333H114.667V811.667H130.667V795.667H120V790.333H130.667V785ZM141.333 785H136V804.771L144 812.771L152 804.771V785H146.667V802.563L144 805.229L141.333 802.563V785Z" fill="#FF006E"/>
</g>
<path d="M932 262C915.44 262 902 275.44 902 292C902 308.56 915.44 322 932 322C948.56 322 962 308.56 962 292C962 275.44 948.56 262 932 262ZM923.87 304.87L913.1 294.1C911.93 292.93 911.93 291.04 913.1 289.87C914.27 288.7 916.16 288.7 917.33 289.87L926 298.51L946.64 277.87C947.81 276.7 949.7 276.7 950.87 277.87C952.04 279.04 952.04 280.93 950.87 282.1L928.1 304.87C926.96 306.04 925.04 306.04 923.87 304.87Z" fill="#05A302"/>
<path d="M952.507 555.074C952.507 555.163 952.543 555.249 952.608 555.312C952.674 555.375 952.762 555.41 952.854 555.41C952.946 555.41 953.034 555.375 953.099 555.312C953.164 555.249 953.201 555.163 953.201 555.074C953.201 554.985 953.164 554.9 953.099 554.837C953.034 554.774 952.946 554.739 952.854 554.739C952.762 554.739 952.674 554.774 952.608 554.837C952.543 554.9 952.507 554.985 952.507 555.074ZM944.848 562.719C944.848 562.896 944.92 563.065 945.05 563.191C945.179 563.316 945.355 563.386 945.538 563.386C945.721 563.386 945.896 563.316 946.026 563.191C946.155 563.065 946.228 562.896 946.228 562.719C946.228 562.542 946.155 562.372 946.026 562.247C945.896 562.121 945.721 562.051 945.538 562.051C945.355 562.051 945.179 562.121 945.05 562.247C944.92 562.372 944.848 562.542 944.848 562.719ZM934.523 566.653C934.523 566.919 934.633 567.174 934.827 567.362C935.021 567.55 935.285 567.656 935.56 567.656C935.835 567.656 936.099 567.55 936.294 567.362C936.488 567.174 936.597 566.919 936.597 566.653C936.597 566.521 936.57 566.391 936.518 566.269C936.466 566.148 936.39 566.037 936.294 565.944C936.197 565.851 936.083 565.777 935.957 565.726C935.831 565.676 935.696 565.65 935.56 565.65C935.424 565.65 935.289 565.676 935.163 565.726C935.038 565.777 934.923 565.851 934.827 565.944C934.731 566.037 934.654 566.148 934.602 566.269C934.55 566.391 934.523 566.521 934.523 566.653ZM923.41 566.126C923.41 566.48 923.555 566.819 923.814 567.07C924.073 567.32 924.424 567.461 924.79 567.461C925.156 567.461 925.507 567.32 925.766 567.07C926.025 566.819 926.17 566.48 926.17 566.126C926.17 565.772 926.025 565.432 925.766 565.182C925.507 564.932 925.156 564.791 924.79 564.791C924.424 564.791 924.073 564.932 923.814 565.182C923.555 565.432 923.41 565.772 923.41 566.126ZM913.551 561.233C913.551 561.452 913.595 561.669 913.682 561.872C913.769 562.074 913.896 562.259 914.057 562.414C914.217 562.569 914.407 562.692 914.617 562.776C914.826 562.86 915.051 562.903 915.278 562.903C915.505 562.903 915.729 562.86 915.939 562.776C916.148 562.692 916.339 562.569 916.499 562.414C916.659 562.259 916.787 562.074 916.873 561.872C916.96 561.669 917.005 561.452 917.005 561.233C917.005 561.013 916.96 560.796 916.873 560.593C916.787 560.391 916.659 560.206 916.499 560.051C916.339 559.896 916.148 559.773 915.939 559.689C915.729 559.605 915.505 559.562 915.278 559.562C915.051 559.562 914.826 559.605 914.617 559.689C914.407 559.773 914.217 559.896 914.057 560.051C913.896 560.206 913.769 560.391 913.682 560.593C913.595 560.796 913.551 561.013 913.551 561.233ZM906.723 552.914C906.723 553.446 906.941 553.956 907.33 554.332C907.719 554.708 908.246 554.92 908.797 554.92C909.347 554.92 909.874 554.708 910.263 554.332C910.652 553.956 910.871 553.446 910.871 552.914C910.871 552.381 910.652 551.871 910.263 551.495C909.874 551.119 909.347 550.908 908.797 550.908C908.246 550.908 907.719 551.119 907.33 551.495C906.941 551.871 906.723 552.381 906.723 552.914ZM904.161 542.699C904.161 543.006 904.223 543.31 904.345 543.594C904.466 543.877 904.644 544.135 904.868 544.352C905.093 544.569 905.359 544.742 905.653 544.859C905.946 544.977 906.26 545.037 906.578 545.037C906.895 545.037 907.209 544.977 907.503 544.859C907.796 544.742 908.062 544.569 908.287 544.352C908.511 544.135 908.689 543.877 908.811 543.594C908.932 543.31 908.995 543.006 908.995 542.699C908.995 542.079 908.74 541.484 908.287 541.046C907.834 540.608 907.219 540.361 906.578 540.361C905.937 540.361 905.322 540.608 904.868 541.046C904.415 541.484 904.161 542.079 904.161 542.699ZM906.269 532.551C906.269 532.902 906.34 533.25 906.479 533.574C906.618 533.899 906.822 534.193 907.078 534.442C907.335 534.69 907.64 534.887 907.975 535.021C908.31 535.155 908.67 535.225 909.033 535.225C909.766 535.225 910.469 534.943 910.987 534.442C911.506 533.94 911.797 533.26 911.797 532.551C911.797 531.842 911.506 531.162 910.987 530.661C910.469 530.159 909.766 529.878 909.033 529.878C908.3 529.878 907.597 530.159 907.078 530.661C906.56 531.162 906.269 531.842 906.269 532.551ZM912.594 524.369C912.594 524.764 912.674 525.155 912.831 525.52C912.987 525.885 913.216 526.217 913.505 526.496C913.794 526.776 914.137 526.997 914.514 527.149C914.892 527.3 915.296 527.378 915.705 527.378C916.113 527.378 916.518 527.3 916.895 527.149C917.273 526.997 917.616 526.776 917.905 526.496C918.193 526.217 918.423 525.885 918.579 525.52C918.735 525.155 918.816 524.764 918.816 524.369C918.816 523.571 918.488 522.805 917.905 522.241C917.321 521.677 916.53 521.36 915.705 521.36C914.88 521.36 914.088 521.677 913.505 522.241C912.922 522.805 912.594 523.571 912.594 524.369ZM921.881 519.682C921.881 520.12 921.97 520.555 922.144 520.96C922.318 521.366 922.572 521.734 922.893 522.044C923.213 522.354 923.594 522.6 924.013 522.768C924.432 522.936 924.882 523.023 925.335 523.023C926.251 523.023 927.13 522.671 927.778 522.044C928.425 521.418 928.789 520.568 928.789 519.682C928.789 518.796 928.425 517.946 927.778 517.319C927.13 516.693 926.251 516.341 925.335 516.341C924.419 516.341 923.54 516.693 922.893 517.319C922.245 517.946 921.881 518.796 921.881 519.682ZM932.312 519.39C932.312 520.365 932.712 521.301 933.425 521.99C934.138 522.68 935.105 523.067 936.113 523.067C937.121 523.067 938.088 522.68 938.801 521.99C939.514 521.301 939.914 520.365 939.914 519.39C939.914 518.415 939.514 517.48 938.801 516.791C938.088 516.101 937.121 515.714 936.113 515.714C935.105 515.714 934.138 516.101 933.425 516.791C932.712 517.48 932.312 518.415 932.312 519.39ZM941.862 523.546C941.862 524.609 942.299 525.629 943.076 526.381C943.853 527.132 944.907 527.555 946.007 527.555C947.106 527.555 948.16 527.132 948.937 526.381C949.714 525.629 950.151 524.609 950.151 523.546C950.151 522.483 949.714 521.464 948.937 520.712C948.16 519.96 947.106 519.538 946.007 519.538C944.907 519.538 943.853 519.96 943.076 520.712C942.299 521.464 941.862 522.483 941.862 523.546ZM948.649 531.353C948.649 531.923 948.765 532.488 948.99 533.015C949.216 533.542 949.547 534.021 949.964 534.424C950.381 534.828 950.876 535.148 951.421 535.366C951.966 535.584 952.55 535.697 953.14 535.697C953.729 535.697 954.314 535.584 954.858 535.366C955.403 535.148 955.898 534.828 956.315 534.424C956.732 534.021 957.063 533.542 957.289 533.015C957.515 532.488 957.631 531.923 957.631 531.353C957.631 530.782 957.515 530.217 957.289 529.69C957.063 529.163 956.732 528.684 956.315 528.281C955.898 527.878 955.403 527.558 954.858 527.339C954.314 527.121 953.729 527.009 953.14 527.009C952.55 527.009 951.966 527.121 951.421 527.339C950.876 527.558 950.381 527.878 949.964 528.281C949.547 528.684 949.216 529.163 948.99 529.69C948.765 530.217 948.649 530.782 948.649 531.353ZM951.348 541.464C951.348 542.078 951.473 542.687 951.716 543.255C951.959 543.822 952.316 544.338 952.765 544.773C953.214 545.207 953.747 545.552 954.334 545.787C954.921 546.022 955.551 546.143 956.186 546.143C957.469 546.143 958.7 545.65 959.607 544.773C960.514 543.895 961.024 542.705 961.024 541.464C961.024 540.223 960.514 539.033 959.607 538.155C958.7 537.277 957.469 536.784 956.186 536.784C954.903 536.784 953.672 537.277 952.765 538.155C951.858 539.033 951.348 540.223 951.348 541.464Z" fill="#1362D9"/>
<path d="M951.507 805.074C951.507 805.163 951.543 805.249 951.608 805.312C951.674 805.375 951.762 805.41 951.854 805.41C951.946 805.41 952.034 805.375 952.099 805.312C952.164 805.249 952.201 805.163 952.201 805.074C952.201 804.985 952.164 804.9 952.099 804.837C952.034 804.774 951.946 804.739 951.854 804.739C951.762 804.739 951.674 804.774 951.608 804.837C951.543 804.9 951.507 804.985 951.507 805.074ZM943.848 812.719C943.848 812.896 943.92 813.065 944.05 813.191C944.179 813.316 944.355 813.386 944.538 813.386C944.721 813.386 944.896 813.316 945.026 813.191C945.155 813.065 945.228 812.896 945.228 812.719C945.228 812.542 945.155 812.372 945.026 812.247C944.896 812.121 944.721 812.051 944.538 812.051C944.355 812.051 944.179 812.121 944.05 812.247C943.92 812.372 943.848 812.542 943.848 812.719ZM933.523 816.653C933.523 816.919 933.633 817.174 933.827 817.362C934.021 817.55 934.285 817.656 934.56 817.656C934.835 817.656 935.099 817.55 935.294 817.362C935.488 817.174 935.597 816.919 935.597 816.653C935.597 816.521 935.57 816.391 935.518 816.269C935.466 816.148 935.39 816.037 935.294 815.944C935.197 815.851 935.083 815.777 934.957 815.726C934.831 815.676 934.696 815.65 934.56 815.65C934.424 815.65 934.289 815.676 934.163 815.726C934.038 815.777 933.923 815.851 933.827 815.944C933.731 816.037 933.654 816.148 933.602 816.269C933.55 816.391 933.523 816.521 933.523 816.653ZM922.41 816.126C922.41 816.48 922.555 816.819 922.814 817.07C923.073 817.32 923.424 817.461 923.79 817.461C924.156 817.461 924.507 817.32 924.766 817.07C925.025 816.819 925.17 816.48 925.17 816.126C925.17 815.772 925.025 815.432 924.766 815.182C924.507 814.932 924.156 814.791 923.79 814.791C923.424 814.791 923.073 814.932 922.814 815.182C922.555 815.432 922.41 815.772 922.41 816.126ZM912.551 811.233C912.551 811.452 912.595 811.669 912.682 811.872C912.769 812.074 912.896 812.259 913.057 812.414C913.217 812.569 913.407 812.692 913.617 812.776C913.826 812.86 914.051 812.903 914.278 812.903C914.505 812.903 914.729 812.86 914.939 812.776C915.148 812.692 915.339 812.569 915.499 812.414C915.659 812.259 915.787 812.074 915.873 811.872C915.96 811.669 916.005 811.452 916.005 811.233C916.005 811.013 915.96 810.796 915.873 810.593C915.787 810.391 915.659 810.206 915.499 810.051C915.339 809.896 915.148 809.773 914.939 809.689C914.729 809.605 914.505 809.562 914.278 809.562C914.051 809.562 913.826 809.605 913.617 809.689C913.407 809.773 913.217 809.896 913.057 810.051C912.896 810.206 912.769 810.391 912.682 810.593C912.595 810.796 912.551 811.013 912.551 811.233ZM905.723 802.914C905.723 803.446 905.941 803.956 906.33 804.332C906.719 804.708 907.246 804.92 907.797 804.92C908.347 804.92 908.874 804.708 909.263 804.332C909.652 803.956 909.871 803.446 909.871 802.914C909.871 802.381 909.652 801.871 909.263 801.495C908.874 801.119 908.347 800.908 907.797 800.908C907.246 800.908 906.719 801.119 906.33 801.495C905.941 801.871 905.723 802.381 905.723 802.914ZM903.161 792.699C903.161 793.006 903.223 793.31 903.345 793.594C903.466 793.877 903.644 794.135 903.868 794.352C904.093 794.569 904.359 794.742 904.653 794.859C904.946 794.977 905.26 795.037 905.578 795.037C905.895 795.037 906.209 794.977 906.503 794.859C906.796 794.742 907.062 794.569 907.287 794.352C907.511 794.135 907.689 793.877 907.811 793.594C907.932 793.31 907.995 793.006 907.995 792.699C907.995 792.079 907.74 791.484 907.287 791.046C906.834 790.608 906.219 790.361 905.578 790.361C904.937 790.361 904.322 790.608 903.868 791.046C903.415 791.484 903.161 792.079 903.161 792.699ZM905.269 782.551C905.269 782.902 905.34 783.25 905.479 783.574C905.618 783.899 905.822 784.193 906.078 784.442C906.335 784.69 906.64 784.887 906.975 785.021C907.31 785.155 907.67 785.225 908.033 785.225C908.766 785.225 909.469 784.943 909.987 784.442C910.506 783.94 910.797 783.26 910.797 782.551C910.797 781.842 910.506 781.162 909.987 780.661C909.469 780.159 908.766 779.878 908.033 779.878C907.3 779.878 906.597 780.159 906.078 780.661C905.56 781.162 905.269 781.842 905.269 782.551ZM911.594 774.369C911.594 774.764 911.674 775.155 911.831 775.52C911.987 775.885 912.216 776.217 912.505 776.496C912.794 776.776 913.137 776.997 913.514 777.149C913.892 777.3 914.296 777.378 914.705 777.378C915.113 777.378 915.518 777.3 915.895 777.149C916.273 776.997 916.616 776.776 916.905 776.496C917.193 776.217 917.423 775.885 917.579 775.52C917.735 775.155 917.816 774.764 917.816 774.369C917.816 773.571 917.488 772.805 916.905 772.241C916.321 771.677 915.53 771.36 914.705 771.36C913.88 771.36 913.088 771.677 912.505 772.241C911.922 772.805 911.594 773.571 911.594 774.369ZM920.881 769.682C920.881 770.12 920.97 770.555 921.144 770.96C921.318 771.366 921.572 771.734 921.893 772.044C922.213 772.354 922.594 772.6 923.013 772.768C923.432 772.936 923.882 773.023 924.335 773.023C925.251 773.023 926.13 772.671 926.778 772.044C927.425 771.418 927.789 770.568 927.789 769.682C927.789 768.796 927.425 767.946 926.778 767.319C926.13 766.693 925.251 766.341 924.335 766.341C923.419 766.341 922.54 766.693 921.893 767.319C921.245 767.946 920.881 768.796 920.881 769.682ZM931.312 769.39C931.312 770.365 931.712 771.301 932.425 771.99C933.138 772.68 934.105 773.067 935.113 773.067C936.121 773.067 937.088 772.68 937.801 771.99C938.514 771.301 938.914 770.365 938.914 769.39C938.914 768.415 938.514 767.48 937.801 766.791C937.088 766.101 936.121 765.714 935.113 765.714C934.105 765.714 933.138 766.101 932.425 766.791C931.712 767.48 931.312 768.415 931.312 769.39ZM940.862 773.546C940.862 774.609 941.299 775.629 942.076 776.381C942.853 777.132 943.907 777.555 945.007 777.555C946.106 777.555 947.16 777.132 947.937 776.381C948.714 775.629 949.151 774.609 949.151 773.546C949.151 772.483 948.714 771.464 947.937 770.712C947.16 769.96 946.106 769.538 945.007 769.538C943.907 769.538 942.853 769.96 942.076 770.712C941.299 771.464 940.862 772.483 940.862 773.546ZM947.649 781.353C947.649 781.923 947.765 782.488 947.99 783.015C948.216 783.542 948.547 784.021 948.964 784.424C949.381 784.828 949.876 785.148 950.421 785.366C950.966 785.584 951.55 785.697 952.14 785.697C952.729 785.697 953.314 785.584 953.858 785.366C954.403 785.148 954.898 784.828 955.315 784.424C955.732 784.021 956.063 783.542 956.289 783.015C956.515 782.488 956.631 781.923 956.631 781.353C956.631 780.782 956.515 780.217 956.289 779.69C956.063 779.163 955.732 778.684 955.315 778.281C954.898 777.878 954.403 777.558 953.858 777.339C953.314 777.121 952.729 777.009 952.14 777.009C951.55 777.009 950.966 777.121 950.421 777.339C949.876 777.558 949.381 777.878 948.964 778.281C948.547 778.684 948.216 779.163 947.99 779.69C947.765 780.217 947.649 780.782 947.649 781.353ZM950.348 791.464C950.348 792.078 950.473 792.687 950.716 793.255C950.959 793.822 951.316 794.338 951.765 794.773C952.214 795.207 952.747 795.552 953.334 795.787C953.921 796.022 954.551 796.143 955.186 796.143C956.469 796.143 957.7 795.65 958.607 794.773C959.514 793.895 960.024 792.705 960.024 791.464C960.024 790.223 959.514 789.033 958.607 788.155C957.7 787.277 956.469 786.784 955.186 786.784C953.903 786.784 952.672 787.277 951.765 788.155C950.858 789.033 950.348 790.223 950.348 791.464Z" fill="#1362D9"/>
<rect x="709" y="372" width="192" height="27" rx="13.5" fill="#D9D9D9" fill-opacity="0.29"/>
<rect x="918" y="372" width="111" height="27" rx="13.5" fill="#D9D9D9" fill-opacity="0.53"/>
<rect x="709" y="623" width="192" height="27" rx="13.5" fill="#D9D9D9" fill-opacity="0.29"/>
<rect x="918" y="623" width="111" height="27" rx="13.5" fill="#D9D9D9" fill-opacity="0.53"/>
<rect x="717" y="874" width="192" height="27" rx="13.5" fill="#D9D9D9" fill-opacity="0.29"/>
<rect x="926" y="874" width="111" height="27" rx="13.5" fill="#D9D9D9" fill-opacity="0.53"/>
</svg>
